<mxfile host="app.diagrams.net" modified="2022-06-23T01:56:20.845Z" agent="5.0 (Macintosh; Intel Mac OS X 10_15_7) AppleWebKit/605.1.15 (KHTML, like Gecko) Version/14.1 Safari/605.1.15" etag="aCqJaZntHKtFgSyE4r5v" version="19.0.3" type="github" pages="2">
  <diagram id="SjdM-1yv68IjHm76F6hi" name="ERD">
    <mxGraphModel dx="912" dy="620" grid="1" gridSize="10" guides="1" tooltips="1" connect="1" arrows="1" fold="1" page="1" pageScale="1" pageWidth="827" pageHeight="1169" math="0" shadow="0">
      <root>
        <mxCell id="0" />
        <mxCell id="1" parent="0" />
        <mxCell id="Psx1nCngVoqDFSlKq3yv-1" value="&lt;h1&gt;问题&lt;/h1&gt;&lt;h1&gt;&lt;span style=&quot;font-size: 12px; font-weight: normal;&quot;&gt;1.&lt;/span&gt;&lt;span style=&quot;font-size: 12px; font-weight: normal;&quot;&gt;预付&lt;/span&gt;&lt;span style=&quot;font-size: 12px; font-weight: normal;&quot;&gt;核销与抵扣的区别？&lt;/span&gt;&lt;/h1&gt;&lt;div&gt;从抵扣到核销，预付金被使用即抵扣，结算完成后即核销&lt;/div&gt;&lt;div&gt;&lt;br&gt;&lt;/div&gt;&lt;div&gt;2.抵扣金额变动的场景&lt;/div&gt;&lt;div&gt;方案1&lt;/div&gt;&lt;div&gt;预付选择/修改/取消抵扣金额&lt;/div&gt;&lt;div&gt;结算选择/修改/取消抵扣金额&lt;br&gt;&lt;/div&gt;&lt;div&gt;收货确认结算金额&lt;/div&gt;&lt;div&gt;方案2&amp;nbsp;&lt;/div&gt;&lt;div&gt;提交预付单&lt;/div&gt;&lt;div&gt;提交结算单&lt;/div&gt;&lt;div&gt;确认收货&lt;/div&gt;&lt;div&gt;&lt;br&gt;&lt;/div&gt;&lt;div&gt;&lt;br&gt;&lt;/div&gt;&lt;div&gt;&lt;br&gt;&lt;/div&gt;&lt;div&gt;&lt;br&gt;&lt;/div&gt;&lt;div&gt;&lt;br&gt;&lt;/div&gt;&lt;div&gt;&lt;br&gt;&lt;/div&gt;&lt;div&gt;常用名词：&lt;/div&gt;&lt;div&gt;抵扣&lt;/div&gt;&lt;div&gt;核销&lt;/div&gt;&lt;div&gt;预付占用&lt;/div&gt;&lt;div&gt;&lt;span style=&quot;font-size: 12px; font-weight: normal;&quot;&gt;&lt;br&gt;&lt;/span&gt;&lt;/div&gt;" style="text;html=1;strokeColor=none;fillColor=none;spacing=5;spacingTop=-20;whiteSpace=wrap;overflow=hidden;rounded=0;" vertex="1" parent="1">
          <mxGeometry x="10" y="60" width="190" height="590" as="geometry" />
        </mxCell>
        <mxCell id="Psx1nCngVoqDFSlKq3yv-2" value="已有实体" style="whiteSpace=wrap;html=1;align=center;fillColor=#d5e8d4;strokeColor=#82b366;" vertex="1" parent="1">
          <mxGeometry x="380" width="100" height="20" as="geometry" />
        </mxCell>
        <mxCell id="Psx1nCngVoqDFSlKq3yv-3" value="待建设实体" style="whiteSpace=wrap;html=1;align=center;" vertex="1" parent="1">
          <mxGeometry x="510" width="100" height="20" as="geometry" />
        </mxCell>
        <mxCell id="Psx1nCngVoqDFSlKq3yv-4" value="无物理模型实体" style="whiteSpace=wrap;html=1;align=center;dashed=1;" vertex="1" parent="1">
          <mxGeometry x="640" width="100" height="20" as="geometry" />
        </mxCell>
        <mxCell id="Psx1nCngVoqDFSlKq3yv-5" value="" style="swimlane;startSize=0;dashed=1;" vertex="1" parent="1">
          <mxGeometry x="204" y="80" width="596" height="470" as="geometry">
            <mxRectangle x="214" y="520" width="50" height="40" as="alternateBounds" />
          </mxGeometry>
        </mxCell>
        <mxCell id="Psx1nCngVoqDFSlKq3yv-6" value="预付单" style="whiteSpace=wrap;html=1;align=center;" vertex="1" parent="Psx1nCngVoqDFSlKq3yv-5">
          <mxGeometry x="266" y="210" width="100" height="40" as="geometry" />
        </mxCell>
        <mxCell id="Psx1nCngVoqDFSlKq3yv-7" value="预付单明细" style="whiteSpace=wrap;html=1;align=center;" vertex="1" parent="Psx1nCngVoqDFSlKq3yv-5">
          <mxGeometry x="266" y="300" width="100" height="40" as="geometry" />
        </mxCell>
        <mxCell id="Psx1nCngVoqDFSlKq3yv-8" value="预付单商品明细" style="whiteSpace=wrap;html=1;align=center;dashed=1;" vertex="1" parent="Psx1nCngVoqDFSlKq3yv-5">
          <mxGeometry x="266" y="390" width="100" height="40" as="geometry" />
        </mxCell>
        <mxCell id="Psx1nCngVoqDFSlKq3yv-9" value="预付金采购抵扣/核销记录" style="whiteSpace=wrap;html=1;align=center;" vertex="1" parent="Psx1nCngVoqDFSlKq3yv-5">
          <mxGeometry x="46" y="170" width="100" height="40" as="geometry" />
        </mxCell>
        <mxCell id="Psx1nCngVoqDFSlKq3yv-10" value="结算单" style="whiteSpace=wrap;html=1;align=center;fillColor=#d5e8d4;strokeColor=#82b366;" vertex="1" parent="Psx1nCngVoqDFSlKq3yv-5">
          <mxGeometry x="266" y="110" width="100" height="40" as="geometry" />
        </mxCell>
        <mxCell id="Psx1nCngVoqDFSlKq3yv-11" value="采购单" style="whiteSpace=wrap;html=1;align=center;fillColor=#d5e8d4;strokeColor=#82b366;" vertex="1" parent="Psx1nCngVoqDFSlKq3yv-5">
          <mxGeometry x="46" y="340" width="100" height="40" as="geometry" />
        </mxCell>
        <mxCell id="Psx1nCngVoqDFSlKq3yv-12" value="调整单" style="whiteSpace=wrap;html=1;align=center;fillColor=#d5e8d4;strokeColor=#82b366;" vertex="1" parent="Psx1nCngVoqDFSlKq3yv-5">
          <mxGeometry x="466" y="270" width="100" height="40" as="geometry" />
        </mxCell>
        <mxCell id="Psx1nCngVoqDFSlKq3yv-13" value="" style="fontSize=12;html=1;endArrow=ERoneToMany;rounded=0;exitX=0.5;exitY=1;exitDx=0;exitDy=0;entryX=0.5;entryY=0;entryDx=0;entryDy=0;" edge="1" parent="Psx1nCngVoqDFSlKq3yv-5" source="Psx1nCngVoqDFSlKq3yv-6" target="Psx1nCngVoqDFSlKq3yv-7">
          <mxGeometry width="100" height="100" relative="1" as="geometry">
            <mxPoint x="226" y="360" as="sourcePoint" />
            <mxPoint x="326" y="260" as="targetPoint" />
          </mxGeometry>
        </mxCell>
        <mxCell id="Psx1nCngVoqDFSlKq3yv-14" value="" style="edgeStyle=orthogonalEdgeStyle;fontSize=12;html=1;endArrow=ERzeroToMany;endFill=1;rounded=0;entryX=0.5;entryY=0;entryDx=0;entryDy=0;exitX=0.5;exitY=1;exitDx=0;exitDy=0;curved=1;" edge="1" parent="Psx1nCngVoqDFSlKq3yv-5" source="Psx1nCngVoqDFSlKq3yv-7" target="Psx1nCngVoqDFSlKq3yv-8">
          <mxGeometry width="100" height="100" relative="1" as="geometry">
            <mxPoint x="166" y="480" as="sourcePoint" />
            <mxPoint x="266" y="380" as="targetPoint" />
          </mxGeometry>
        </mxCell>
        <mxCell id="Psx1nCngVoqDFSlKq3yv-15" value="" style="edgeStyle=entityRelationEdgeStyle;fontSize=12;html=1;endArrow=ERoneToMany;rounded=0;entryX=1;entryY=0.5;entryDx=0;entryDy=0;exitX=0;exitY=0.75;exitDx=0;exitDy=0;" edge="1" parent="Psx1nCngVoqDFSlKq3yv-5" source="Psx1nCngVoqDFSlKq3yv-6" target="Psx1nCngVoqDFSlKq3yv-9">
          <mxGeometry width="100" height="100" relative="1" as="geometry">
            <mxPoint x="186" y="320" as="sourcePoint" />
            <mxPoint x="286" y="220" as="targetPoint" />
          </mxGeometry>
        </mxCell>
        <mxCell id="Psx1nCngVoqDFSlKq3yv-16" value="" style="edgeStyle=entityRelationEdgeStyle;fontSize=12;html=1;endArrow=ERzeroToOne;endFill=1;rounded=0;entryX=0;entryY=0.5;entryDx=0;entryDy=0;exitX=1;exitY=0.25;exitDx=0;exitDy=0;dashed=1;" edge="1" parent="Psx1nCngVoqDFSlKq3yv-5" source="Psx1nCngVoqDFSlKq3yv-7" target="Psx1nCngVoqDFSlKq3yv-12">
          <mxGeometry width="100" height="100" relative="1" as="geometry">
            <mxPoint x="96" y="580" as="sourcePoint" />
            <mxPoint x="196" y="480" as="targetPoint" />
          </mxGeometry>
        </mxCell>
        <mxCell id="Psx1nCngVoqDFSlKq3yv-17" value="规划中" style="edgeLabel;html=1;align=center;verticalAlign=middle;resizable=0;points=[];" vertex="1" connectable="0" parent="Psx1nCngVoqDFSlKq3yv-16">
          <mxGeometry x="0.2463" y="2" relative="1" as="geometry">
            <mxPoint x="-24" y="-2" as="offset" />
          </mxGeometry>
        </mxCell>
        <mxCell id="Psx1nCngVoqDFSlKq3yv-18" value="" style="edgeStyle=entityRelationEdgeStyle;fontSize=12;html=1;endArrow=ERzeroToOne;endFill=1;rounded=0;entryX=1;entryY=0.5;entryDx=0;entryDy=0;exitX=0;exitY=0.75;exitDx=0;exitDy=0;" edge="1" parent="Psx1nCngVoqDFSlKq3yv-5" source="Psx1nCngVoqDFSlKq3yv-7" target="Psx1nCngVoqDFSlKq3yv-11">
          <mxGeometry width="100" height="100" relative="1" as="geometry">
            <mxPoint x="276" y="320" as="sourcePoint" />
            <mxPoint x="126" y="300" as="targetPoint" />
          </mxGeometry>
        </mxCell>
        <mxCell id="Psx1nCngVoqDFSlKq3yv-19" value="采购单明细" style="whiteSpace=wrap;html=1;align=center;fillColor=#d5e8d4;strokeColor=#82b366;" vertex="1" parent="Psx1nCngVoqDFSlKq3yv-5">
          <mxGeometry x="46" y="410" width="100" height="40" as="geometry" />
        </mxCell>
        <mxCell id="Psx1nCngVoqDFSlKq3yv-20" value="" style="fontSize=12;html=1;endArrow=ERoneToMany;rounded=0;exitX=0.5;exitY=1;exitDx=0;exitDy=0;entryX=0.5;entryY=0;entryDx=0;entryDy=0;" edge="1" parent="Psx1nCngVoqDFSlKq3yv-5" source="Psx1nCngVoqDFSlKq3yv-11" target="Psx1nCngVoqDFSlKq3yv-19">
          <mxGeometry width="100" height="100" relative="1" as="geometry">
            <mxPoint x="196" y="640" as="sourcePoint" />
            <mxPoint x="296" y="540" as="targetPoint" />
          </mxGeometry>
        </mxCell>
        <mxCell id="Psx1nCngVoqDFSlKq3yv-21" value="退货单" style="whiteSpace=wrap;html=1;align=center;fillColor=#d5e8d4;strokeColor=#82b366;" vertex="1" parent="Psx1nCngVoqDFSlKq3yv-5">
          <mxGeometry x="466" y="330" width="100" height="40" as="geometry" />
        </mxCell>
        <mxCell id="Psx1nCngVoqDFSlKq3yv-22" value="退货单明细" style="whiteSpace=wrap;html=1;align=center;fillColor=#d5e8d4;strokeColor=#82b366;" vertex="1" parent="Psx1nCngVoqDFSlKq3yv-5">
          <mxGeometry x="466" y="410" width="100" height="40" as="geometry" />
        </mxCell>
        <mxCell id="Psx1nCngVoqDFSlKq3yv-23" value="" style="edgeStyle=entityRelationEdgeStyle;fontSize=12;html=1;endArrow=ERzeroToOne;endFill=1;rounded=0;entryX=0;entryY=0.5;entryDx=0;entryDy=0;exitX=1;exitY=0.75;exitDx=0;exitDy=0;dashed=1;" edge="1" parent="Psx1nCngVoqDFSlKq3yv-5" source="Psx1nCngVoqDFSlKq3yv-7" target="Psx1nCngVoqDFSlKq3yv-21">
          <mxGeometry width="100" height="100" relative="1" as="geometry">
            <mxPoint x="276" y="340" as="sourcePoint" />
            <mxPoint x="126" y="370" as="targetPoint" />
          </mxGeometry>
        </mxCell>
        <mxCell id="Psx1nCngVoqDFSlKq3yv-24" value="规划中" style="edgeLabel;html=1;align=center;verticalAlign=middle;resizable=0;points=[];" vertex="1" connectable="0" parent="Psx1nCngVoqDFSlKq3yv-23">
          <mxGeometry x="-0.3333" relative="1" as="geometry">
            <mxPoint as="offset" />
          </mxGeometry>
        </mxCell>
        <mxCell id="Psx1nCngVoqDFSlKq3yv-25" value="" style="fontSize=12;html=1;endArrow=ERoneToMany;rounded=0;exitX=0.5;exitY=1;exitDx=0;exitDy=0;entryX=0.5;entryY=0;entryDx=0;entryDy=0;" edge="1" parent="Psx1nCngVoqDFSlKq3yv-5" source="Psx1nCngVoqDFSlKq3yv-21" target="Psx1nCngVoqDFSlKq3yv-22">
          <mxGeometry width="100" height="100" relative="1" as="geometry">
            <mxPoint x="96" y="440" as="sourcePoint" />
            <mxPoint x="96" y="470" as="targetPoint" />
          </mxGeometry>
        </mxCell>
        <mxCell id="Psx1nCngVoqDFSlKq3yv-26" value="预付金结算抵扣/核销记录" style="whiteSpace=wrap;html=1;align=center;" vertex="1" parent="Psx1nCngVoqDFSlKq3yv-5">
          <mxGeometry x="466" y="160" width="100" height="40" as="geometry" />
        </mxCell>
        <mxCell id="Psx1nCngVoqDFSlKq3yv-27" value="" style="edgeStyle=orthogonalEdgeStyle;fontSize=12;html=1;endArrow=ERoneToMany;rounded=0;exitX=1;exitY=0.5;exitDx=0;exitDy=0;" edge="1" parent="Psx1nCngVoqDFSlKq3yv-5" source="Psx1nCngVoqDFSlKq3yv-6" target="Psx1nCngVoqDFSlKq3yv-26">
          <mxGeometry width="100" height="100" relative="1" as="geometry">
            <mxPoint x="276" y="240" as="sourcePoint" />
            <mxPoint x="126" y="200" as="targetPoint" />
          </mxGeometry>
        </mxCell>
        <mxCell id="Psx1nCngVoqDFSlKq3yv-28" value="" style="edgeStyle=orthogonalEdgeStyle;fontSize=12;html=1;endArrow=ERoneToMany;rounded=0;entryX=0.5;entryY=1;entryDx=0;entryDy=0;exitX=0.5;exitY=0;exitDx=0;exitDy=0;" edge="1" parent="Psx1nCngVoqDFSlKq3yv-5" source="Psx1nCngVoqDFSlKq3yv-11" target="Psx1nCngVoqDFSlKq3yv-9">
          <mxGeometry width="100" height="100" relative="1" as="geometry">
            <mxPoint x="-234" y="500" as="sourcePoint" />
            <mxPoint x="-134" y="400" as="targetPoint" />
            <Array as="points" />
          </mxGeometry>
        </mxCell>
        <mxCell id="Psx1nCngVoqDFSlKq3yv-29" value="" style="edgeStyle=orthogonalEdgeStyle;fontSize=12;html=1;endArrow=ERoneToMany;rounded=0;exitX=1;exitY=0.5;exitDx=0;exitDy=0;entryX=0.5;entryY=0;entryDx=0;entryDy=0;" edge="1" parent="Psx1nCngVoqDFSlKq3yv-5" source="Psx1nCngVoqDFSlKq3yv-10" target="Psx1nCngVoqDFSlKq3yv-26">
          <mxGeometry width="100" height="100" relative="1" as="geometry">
            <mxPoint x="376" y="240" as="sourcePoint" />
            <mxPoint x="476" y="200" as="targetPoint" />
          </mxGeometry>
        </mxCell>
        <mxCell id="Psx1nCngVoqDFSlKq3yv-30" value="预付金消费单" style="whiteSpace=wrap;html=1;align=center;" vertex="1" parent="Psx1nCngVoqDFSlKq3yv-5">
          <mxGeometry x="266" y="30" width="100" height="40" as="geometry" />
        </mxCell>
        <mxCell id="Psx1nCngVoqDFSlKq3yv-31" value="" style="edgeStyle=orthogonalEdgeStyle;fontSize=12;html=1;endArrow=ERoneToMany;rounded=0;exitX=0;exitY=0.5;exitDx=0;exitDy=0;" edge="1" parent="Psx1nCngVoqDFSlKq3yv-5" source="Psx1nCngVoqDFSlKq3yv-30" target="Psx1nCngVoqDFSlKq3yv-9">
          <mxGeometry width="100" height="100" relative="1" as="geometry">
            <mxPoint x="106" y="350" as="sourcePoint" />
            <mxPoint x="106" y="220" as="targetPoint" />
            <Array as="points" />
          </mxGeometry>
        </mxCell>
        <mxCell id="Psx1nCngVoqDFSlKq3yv-32" value="" style="edgeStyle=orthogonalEdgeStyle;fontSize=12;html=1;endArrow=ERoneToMany;rounded=0;exitX=1;exitY=0.5;exitDx=0;exitDy=0;entryX=1;entryY=0.5;entryDx=0;entryDy=0;" edge="1" parent="Psx1nCngVoqDFSlKq3yv-5" source="Psx1nCngVoqDFSlKq3yv-30" target="Psx1nCngVoqDFSlKq3yv-26">
          <mxGeometry width="100" height="100" relative="1" as="geometry">
            <mxPoint x="276" y="60" as="sourcePoint" />
            <mxPoint x="106" y="180" as="targetPoint" />
            <Array as="points" />
          </mxGeometry>
        </mxCell>
        <mxCell id="Psx1nCngVoqDFSlKq3yv-33" value="" style="edgeStyle=orthogonalEdgeStyle;fontSize=12;html=1;endArrow=ERone;endFill=1;rounded=0;entryX=0;entryY=0.75;entryDx=0;entryDy=0;exitX=0;exitY=0.25;exitDx=0;exitDy=0;" edge="1" parent="Psx1nCngVoqDFSlKq3yv-5" source="Psx1nCngVoqDFSlKq3yv-6" target="Psx1nCngVoqDFSlKq3yv-30">
          <mxGeometry width="100" height="100" relative="1" as="geometry">
            <mxPoint x="206" y="290" as="sourcePoint" />
            <mxPoint x="306" y="190" as="targetPoint" />
            <Array as="points">
              <mxPoint x="236" y="220" />
              <mxPoint x="236" y="60" />
            </Array>
          </mxGeometry>
        </mxCell>
        <mxCell id="Psx1nCngVoqDFSlKq3yv-34" value="" style="edgeStyle=orthogonalEdgeStyle;fontSize=12;html=1;endArrow=ERone;endFill=1;rounded=0;entryX=0.5;entryY=1;entryDx=0;entryDy=0;exitX=0.5;exitY=0;exitDx=0;exitDy=0;" edge="1" parent="Psx1nCngVoqDFSlKq3yv-5" source="Psx1nCngVoqDFSlKq3yv-10" target="Psx1nCngVoqDFSlKq3yv-30">
          <mxGeometry width="100" height="100" relative="1" as="geometry">
            <mxPoint x="276" y="230" as="sourcePoint" />
            <mxPoint x="276" y="70" as="targetPoint" />
          </mxGeometry>
        </mxCell>
        <mxCell id="Psx1nCngVoqDFSlKq3yv-35" value="预付-基础功能支持" style="text;html=1;strokeColor=none;fillColor=none;align=center;verticalAlign=middle;whiteSpace=wrap;rounded=0;dashed=1;" vertex="1" parent="Psx1nCngVoqDFSlKq3yv-5">
          <mxGeometry x="16" width="134" height="30" as="geometry" />
        </mxCell>
        <mxCell id="Psx1nCngVoqDFSlKq3yv-36" value="" style="swimlane;startSize=0;dashed=1;" vertex="1" parent="1">
          <mxGeometry x="204" y="560" width="596" height="90" as="geometry" />
        </mxCell>
        <mxCell id="Psx1nCngVoqDFSlKq3yv-37" value="供应商账户余额累计" style="whiteSpace=wrap;html=1;align=center;" vertex="1" parent="Psx1nCngVoqDFSlKq3yv-36">
          <mxGeometry x="46" y="40" width="100" height="40" as="geometry" />
        </mxCell>
        <mxCell id="Psx1nCngVoqDFSlKq3yv-38" value="供应商账户月度台账" style="whiteSpace=wrap;html=1;align=center;" vertex="1" parent="Psx1nCngVoqDFSlKq3yv-36">
          <mxGeometry x="196" y="40" width="100" height="40" as="geometry" />
        </mxCell>
        <mxCell id="Psx1nCngVoqDFSlKq3yv-39" value="供应商账户变动流水" style="whiteSpace=wrap;html=1;align=center;" vertex="1" parent="Psx1nCngVoqDFSlKq3yv-36">
          <mxGeometry x="346" y="40" width="100" height="40" as="geometry" />
        </mxCell>
        <mxCell id="Psx1nCngVoqDFSlKq3yv-40" value="供应商账户余额对账记录" style="whiteSpace=wrap;html=1;align=center;" vertex="1" parent="Psx1nCngVoqDFSlKq3yv-36">
          <mxGeometry x="486" y="40" width="100" height="40" as="geometry" />
        </mxCell>
        <mxCell id="Psx1nCngVoqDFSlKq3yv-41" value="预付-账户余额" style="text;html=1;strokeColor=none;fillColor=none;align=center;verticalAlign=middle;whiteSpace=wrap;rounded=0;dashed=1;" vertex="1" parent="Psx1nCngVoqDFSlKq3yv-36">
          <mxGeometry x="26" width="134" height="30" as="geometry" />
        </mxCell>
        <mxCell id="Psx1nCngVoqDFSlKq3yv-42" value="" style="swimlane;startSize=0;dashed=1;fillColor=#f5f5f5;strokeColor=#666666;gradientColor=#b3b3b3;" vertex="1" parent="1">
          <mxGeometry x="817" y="80" width="200" height="570" as="geometry" />
        </mxCell>
        <mxCell id="Psx1nCngVoqDFSlKq3yv-43" value="预付-流程审批支持+对账支持&lt;br&gt;（规划中待补充）" style="text;html=1;strokeColor=none;fillColor=none;align=center;verticalAlign=middle;whiteSpace=wrap;rounded=0;dashed=1;" vertex="1" parent="Psx1nCngVoqDFSlKq3yv-42">
          <mxGeometry x="13" width="177" height="40" as="geometry" />
        </mxCell>
      </root>
    </mxGraphModel>
  </diagram>
  <diagram name="PDM" id="lO70ega1tgVHbG5UfASX">
    <mxGraphModel dx="912" dy="620" grid="1" gridSize="10" guides="1" tooltips="1" connect="1" arrows="1" fold="1" page="1" pageScale="1" pageWidth="827" pageHeight="1169" math="0" shadow="0">
      <root>
        <mxCell id="0" />
        <mxCell id="1" parent="0" />
      </root>
    </mxGraphModel>
  </diagram>
</mxfile>
